<?xml version="1.0" encoding="UTF-8" standalone="no"?>
<svg
   viewBox="1.27 171.512 497.459 97.899"
   version="1.1"
   id="svg1"
   sodipodi:docname="blob3.svg"
   inkscape:version="1.3 (0e150ed6c4, 2023-07-21)"
   xmlns:inkscape="http://www.inkscape.org/namespaces/inkscape"
   xmlns:sodipodi="http://sodipodi.sourceforge.net/DTD/sodipodi-0.dtd"
   xmlns="http://www.w3.org/2000/svg"
   xmlns:svg="http://www.w3.org/2000/svg">
  <defs
     id="defs1" />
  <sodipodi:namedview
     id="namedview1"
     pagecolor="#505050"
     bordercolor="#eeeeee"
     borderopacity="1"
     inkscape:showpageshadow="0"
     inkscape:pageopacity="0"
     inkscape:pagecheckerboard="0"
     inkscape:deskcolor="#505050"
     inkscape:zoom="1.7568965"
     inkscape:cx="193.52307"
     inkscape:cy="67.448482"
     inkscape:window-width="1920"
     inkscape:window-height="1009"
     inkscape:window-x="-8"
     inkscape:window-y="-6"
     inkscape:window-maximized="1"
     inkscape:current-layer="svg1" />
  <g
     id="Layer_1"
     transform="matrix(0.23652398049831388, 0, 0, 0.22652398049831388, 50.45833969116211, 186.73294067382812)"
     style="">
    <title
       id="title1">Layer 1</title>
    <path
       stroke="#000000"
       fill="#af93ff"
       d="M -216.35533,115.10813 C 422.95667,-29.385874 494.738,-32.525 619.278,-10.18 c 124.542,22.343 359.787,-111.723 682.21,-25.324 322.423,86.398 420.672,-37.241 536.911,-2.98 116.239,34.261 139.7197,53.27011 139.7197,53.27011 0.2739,97.89688 5.6183,209.83957 5.6379,291.12582 0,0 12.3944,-64.34593 -200.7096,7.15507 -213.104,71.502 -464.953,-122.149 -625.473,-77.459 -160.521,44.688 -267.072,98.314 -500.933,65.543 -233.861,-32.773 -848.84126,57.45058 -863.96037,62.04294 -5.79546,-13.25953 -6.32822,-166.6476 -9.03596,-248.08581 z"
       id="svg_5"
       transform="rotate(0.99997641,1.1459135e-4,-9.9804525e-7)"
       sodipodi:nodetypes="cccsccccccc" />
  </g>
</svg>
