<?xml version="1.0" encoding="utf-8"?>
<svg xmlns="http://www.w3.org/2000/svg">
<g id="Layer_1">
    <title>Layer 1</title>
    <path fill="none" stroke="#000" opacity="NaN" d="m693.14286,561c176.57143,-53.71429 282.28571,-16.57143 282.28571,-17.14286c0,0.57143 -458.85714,70.85714 -282.28571,17.14286z" id="svg_3"/>
    <path stroke="#000" transform="rotate(1 890.954 196.426)" fill="#af93ff" d="m126.40015,116.13746c560.31858,-126.63978 487.54995,-78.33387 596.70291,-58.75042c109.15297,19.58347 315.33081,-97.91735 597.91573,-22.19461c282.58492,75.72276 368.69449,-32.63911 470.5706,-2.61114c101.87611,30.028 133.40918,49.61147 133.40918,49.61147c0,0 23.0434,248.0573 23.0434,248.0573c0,0 -18.19216,-52.22258 -204.96503,10.44452c-186.77286,62.6671 -407.50443,-107.0563 -548.19047,-67.88938c-140.68604,39.16695 -234.07247,86.16728 -439.0375,57.44486c-204.96503,-28.72243 -757.19917,44.44727 -765.80466,52.79675c-8.60549,8.34948 -423.96273,-140.2696 136.35585,-266.90938l-0.00002,0.00002z" id="svg_5"/>
    <rect id="svg_7" height="152.85713" width="2087.14267" y="266.42859" x="-124.28579" stroke="#000" fill="#ffffff"/>
</g>
</svg>