<?xml version="1.0" encoding="utf-8"?>
<svg viewBox="1.27 171.512 497.459 97.899" xmlns="http://www.w3.org/2000/svg">
  <g id="Layer_1" transform="matrix(0.22652398049831388, 0, 0, 0.22652398049831388, 50.45833969116211, 186.73294067382812)" style="">
    <title>Layer 1</title>
    <path stroke="#000" fill="#af93ff" d="M -61.547 56.852 C 577.765 -87.642 494.738 -32.525 619.278 -10.18 C 743.82 12.163 979.065 -121.903 1301.488 -35.504 C 1623.911 50.894 1722.16 -72.745 1838.399 -38.484 C 1954.638 -4.223 1990.616 18.122 1990.616 18.122 C 1990.616 18.122 2016.907 301.151 2016.907 301.151 C 2016.907 301.151 1996.151 241.566 1783.047 313.067 C 1569.943 384.569 1318.094 190.918 1157.574 235.608 C 997.053 280.296 890.502 333.922 656.641 301.151 C 422.78 268.378 -207.307 351.865 -217.126 361.391 C -226.943 370.918 -700.858 201.346 -61.547 56.852 Z" id="svg_5" style="transform-box: fill-box; transform-origin: 50% 50%;" transform="matrix(0.999848, 0.017452, -0.017452, 0.999848, 0, -0.000002)"/>
  </g>
</svg>