<?xml version="1.0" encoding="UTF-8" standalone="no"?>
<svg
   viewBox="0.8345 2.0174 339.549 485.2386"
   version="1.1"
   id="svg1"
   sodipodi:docname="Hessen.svg"
   inkscape:version="1.3 (0e150ed6c4, 2023-07-21)"
   xmlns:inkscape="http://www.inkscape.org/namespaces/inkscape"
   xmlns:sodipodi="http://sodipodi.sourceforge.net/DTD/sodipodi-0.dtd"
   xmlns="http://www.w3.org/2000/svg"
   xmlns:svg="http://www.w3.org/2000/svg">
  <defs
     id="defs1" />
  <sodipodi:namedview
     id="namedview1"
     pagecolor="#505050"
     bordercolor="#eeeeee"
     borderopacity="1"
     inkscape:showpageshadow="0"
     inkscape:pageopacity="0"
     inkscape:pagecheckerboard="0"
     inkscape:deskcolor="#505050"
     inkscape:zoom="18.955716"
     inkscape:cx="298.48516"
     inkscape:cy="209.25086"
     inkscape:window-width="1920"
     inkscape:window-height="1009"
     inkscape:window-x="1912"
     inkscape:window-y="-8"
     inkscape:window-maximized="1"
     inkscape:current-layer="svg1" />
  <path
     id="Hessen"
     stroke-width="0.5"
     d="m 459.941,131.129 -0.647,2.924 0.473,3.226 1.854,6.967 4.633,11.071 3.892,4.891 10.954,4.007 6.07,2.583 2.94,9.31 14.648,7.435 5.314,1.807 2.63,1.596 1.869,1.529 4.217,4.146 3.991,0.953 0.915,1.969 -1.046,2.547 -1.954,1.424 -1.194,0.583 -1.069,0.983 -1.359,4.283 0.102,0.816 1.155,1.728 0.658,-0.095 0.135,5.703 -0.135,2.552 -0.595,0.713 h -1.834 l -1.192,-2.239 0.036,-0.138 -0.891,-1.424 -1.156,-4.249 -3.381,-3.464 -8.394,2.045 -1.463,1.827 0.344,0.86 4.331,9.202 1.968,3.94 0.665,13.866 5.79,2.099 2.877,1.939 0.641,0.685 1.638,1.695 1.677,3.02 -0.548,1.597 -1.885,3.701 0.473,0.611 -1.768,2.106 -0.878,0.51 -1.655,0.64 -0.578,-0.135 -0.777,0.572 -5.501,0.749 -1.332,0.173 -1.493,-0.438 -0.935,-0.725 -0.953,-1.144 -4.128,-2.248 -7.372,-1.014 -4.605,-0.476 -2.767,0.337 -0.852,0.409 -0.474,0.334 -0.47,0.958 -1.954,4.078 4.705,15.465 3.11,18.985 0.069,2.553 -5.219,13.181 -2.292,3.707 -4.435,0.134 -5.216,-0.679 -1.478,1.051 -3.517,2.86 -0.444,1.118 -1.153,5.771 0.035,1.809 1.225,2.279 0.307,3.13 0.036,1.494 -0.412,0.469 -0.848,0.306 -4.332,1.362 2.81123,3.96054 0.70477,4.40046 v 1.052 l -1.536,3.978 -4.004,8.596 -4.474,5.504 -2.172,3.13 -0.97,1.424 -0.242,8.519 0.203,2.991 10.515,1.871 3.483,0.584 2.973,-0.608 1.732,-4.01 -3.95,-4.893 -0.138,-1.97 0.762,-1.012 7.814,-3.056 1.56,-0.408 6.931,0.408 4.093,0.408 0.953,0.781 2.493,4.351 2.378,6.625 -5.794,4.864 -0.678,0.741 -1.276,2.041 -0.542,1.192 0.644,31.189 0.139,2.45 -0.99,5.299 -1.5,4.205 -2.973,4.461 -11.328,12.188 -5.118,2.963 -3.889,3.152 -3.753,2.311 -3.857,1.596 -4.958,0.59 -7.204,-3.002 -2.448,-1.942 -11.434,3.336 -1.123,5.093 -1.818,6.904 -0.507,1.05 -2.194,2.031 2.222,3.233 0.816,1.806 0.274,5.263 -0.274,3.568 -0.372,1.263 -1.395,2.583 -2.465,2.445 -5.179,4.692 -2.33,0.906 -0.309,0.112 h -2.198 l -5.485,1.963 -0.408,0.541 -1.051,1.738 -2.225,4.114 -3.009,7.635 -0.242,1.359 -0.404,0.341 -5.114,0.341 -2.493,0.06 -9.808,-2.499 -3.498,-1.189 -3.818,8.11 -1.138,10.971 2.154,13.056 0.783,3.937 1.397,3.333 v 2.583 l -1.287,3.811 -16.411,2.953 -4.335,0.476 h -0.628 l -1.734,-1.396 -5.972,-13.86 -0.343,-0.407 -0.986,-0.276 -31.158,-6.081 -43.285,11.893 -0.409,0.304 -1.67,1.963 -2.359,3.81 -1.498,7.979 -2.082,4.22 4.161,3.599 0.971,-0.206 1.868,0.068 1.647,0.51 0.443,0.206 1.017,0.881 0.449,0.877 1.15,12.503 -5.079,2.851 1.123,1.54 0.136,0.709 1.204,9.722 0.477,9.17 0.308,6.625 1.223,9.793 0.336,0.71 2.294,3.056 -2.94,-0.334 -0.681,0.173 0.099,2.035 0.373,4.619 0.311,1.26 0.852,0.913 13.995,13.998 1.263,0.068 2.49,0.543 0.749,0.231 0.578,0.409 3.788,17.057 -5.212,13.863 -1.594,0.781 -4.366,11.963 -2.628,22.388 2.872,5.264 -0.56,5.272 0.286,0.271 -1.24,3.16 -0.473,0.712 -1.734,1.392 5.184,2.789 1.117,0.82 1.816,4.447 -0.036,1.355 -0.931,1.367 -2.959,0.781 -4.753,-5.538 -3.676,-0.861 -18.125,5.817 -0.783,0.37 -3.349,2.38 -5.097,5.877 -1.22,2.279 -0.649,2.043 2.38,2.177 1.784,2.708 -20.823,19.027 -0.819,0.589 -0.406,0.102 -5.993,-0.277 -1.545,-0.301 -1.903,-2.076 -0.971,-2.791 1.203,-2.743 5.662,-12.034 7.406,-2.58 7.472,-6.764 -0.643,-4.005 0.507,-2.073 h -7.676 l -20.88,-4.113 -1.48,-0.505 -7.409,-3.297 -4.669,-3.19 -6.014,-24.534 1.167,-0.644 0.31,0.608 1.397,0.509 0.334,-0.368 1.652,-3.197 -0.408,-1.531 -3.112,-0.715 -12.641,3.158 -5.493,1.563 -0.95,1.939 0.137,2.616 0.679,1.257 2.025,-0.308 2.882,13.046 v 1.63 l -0.334,1.731 -2.143,3.505 -5.566,4.379 -3.014,0.137 -0.948,-0.269 -1.462,-0.58 -2.938,-2.21 -2.027,-2.75 -1.218,-3.809 -6.559,-8.429 -4.672,-4.074 -1.768,-1.496 -3.214,-0.37 -0.912,0.066 -1.006,0.235 -3.345,1.632 -0.51,0.268 -1.626,-3.809 -5.117,-7.679 -1.612,-2.955 -5.156,-16.542 -0.337,-1.466 0.544,-3.122 0.238,-0.778 0.645,-1.193 0.373,-0.409 2.022,-1.56 1.77,-1.126 1.542,-0.738 2.243,-0.858 4.84,-1.052 1.243,-0.51 1.325,-0.742 1.529,-1.218 1.304,-1.941 0.274,-0.608 0.476,-0.954 1.989,-3.27 -1.112,-7.505 -8.972,-9.374 -1.677,-3.161 -3.224,-4.622 -0.973,-1.596 -7.17,-18.107 -0.607,-2.556 v -1.254 l 0.372,-1.692 0.428,-1.126 1.122,-1.834 0.99,-2.077 0.203,-1.078 0.066,-1.597 -0.407,-1.765 -1.904,-6.116 -0.101,-3.056 -1.547,-3.778 -1.497,-2.613 -1.201,-1.803 -2.311,-2.719 -4.097,-3.736 -2.495,-3.735 -1.424,-2.076 -2.219,-2.418 -3.724,-3.558 -1.867,-0.782 -5.948,-1.259 -3.38,-0.469 -2.941,0.202 -8.121,2.613 -13.303,6.083 -22.562,8.637 -0.951,0.271 -6.389,1.013 -10.717,0.337 -1.131,-0.132 -0.877,-0.277 -1.513,-1.051 -17.395,-24.323 -2.195,-6.216 3.037,-0.65 6.404,-3.6 13.349,-11.144 1.232,0.476 7.435,2.068 0.967,-1.287 1.228,-9.611 -0.409,-1.154 -3.21,-2.886 -2.532,-1.941 -1.671,-1.013 -1.17,-1.674 -0.202,-4.248 0.241,-0.401 4.887,-6.453 1.874,-1.364 1.105,-0.578 13.953,-6.043 5.911,3.46 3.209,0.776 0.955,-0.03 5.385,-5.978 -0.309,-0.545 -1.189,-0.852 -5.37,-5.231 -0.745,-1.533 3.179,-4.181 2.865,-0.88 2.144,0.27 6.735,2.747 6.421,-3.696 -0.071,-6.189 -0.23,-1.288 -2.359,-7.195 -0.238,-0.549 -0.643,-1.29 -8.528,-15.598 -16.968,-11.314 -1.639,-0.035 0.923,-2.478 5.642,-15.893 -2.362,-3.134 -1.716,-4.149 -0.032,-1.049 1.515,-7.816 1.696,-3.425 7.677,-9.147 1.208,-0.443 1.941,-0.539 0.986,0.097 3.888,1.558 1.614,3.367 3.282,1.119 3.447,0.681 2.448,-0.335 0.607,-1.397 2.497,-5.945 0.878,-2.137 2.362,-5.788 1.227,-3.808 -0.035,-1.895 -3.756,-2.148 -1.153,-0.674 -0.412,-0.82 -2.972,-15.626 0.036,-2.988 0.2,-1.771 0.473,-1.324 2.841,-3.23 2.356,-3.191 6.437,-11.96 0.179,-1.122 -0.585,-3.056 -2.584,-3.604 -2.464,-4.867 -1.259,-2.64 -1.343,-3.234 30.479,-29.759 0.643,-0.548 0.622,-0.099 3.131,0.099 0.594,0.203 13.137,6.928 0.575,0.172 1.752,-0.373 0.375,-0.402 3.615,-3.875 13.78,-20.798 1.921,-8.32 0.177,-0.411 1.283,-0.748 0.307,-0.164 1.921,-0.036 0.509,0.2 -0.849,-1.19 -0.038,-0.772 0.273,-0.51 2.75,-2.991 4.622,-4.998 3.178,-2.79 1.264,-1.178 1.528,-2.346 -1.185,-2.818 -2.163,-4.691 -3.417,-10.528 -0.304,-0.993 v -0.608 l 1.407,-2.037 1.694,-1.46 2.467,-2.075 0.408,-0.238 4.063,-1.532 0.473,-0.37 9.022,0.578 5.49,0.882 2.428,0.986 3.586,0.851 1.424,-0.067 10.245,-3.95 9.109,-19.978 0.881,-2.105 0.232,-1.224 -0.505,-6.556 -2.41,-20.624 -0.357,-0.816 -2.75,-3.736 -2.934,-0.068 -2.263,0.203 -14.675,6.597 -3.092,2.103 -0.337,0.102 -2.433,-0.14 -0.983,-0.334 -0.701,-0.688 -6.642,-9.273 1.835,-2.752 8.388,-12.06 3.521,-4.349 3.487,-2.276 9.495,-6.048 16.001,-4.927 12.117,-3.229 13.387,-0.302 11.056,0.713 0.477,-0.173 2.645,-7.882 -0.677,-4.351 -0.139,-0.714 -0.99,-0.546 -1.745,-0.405 -8.09,-13.323 -0.586,-2.102 v -1.423 l 2.201,-2.212 9.171,-3.91 5.1,-1.732 7.153,-1.767 3.756,-0.174 9.398,3.976 3.788,6.285 -2.295,5.703 1.816,5.235 0.546,0.782 0.878,0.575 1.989,0.646 8.868,0.582 1.906,-0.31 1.921,-3.229 2.091,-3.366 13.875,-11.178 14.338,-11.209 10.414,-17.088 12.354,-14.809 4.161,-7.005 10.515,-2.279 0.882,0.181 0.47,0.679 0.102,1.224 -0.78,1.728 -0.68,2.648 0.133,1.093 0.987,1.285 2.333,1.423 2.24,0.309 10.276,0.17 3.108,-0.068 10.962,5.608 0.23,0.334 4.577,5 2.223,1.868 2.651,1.693 0.575,0.61 0.563,1.289 -1.038,2.687 -0.37,0.543 h -0.335 l -2.127,-0.611 -2.342,1.942 -1.887,2.547 -0.584,1.155 -4.903,0.85 -7.822,8.732 -0.47,1.015 -0.039,0.309 0.175,0.514 6.625,11.311 1.769,1.938 1.127,5.099 2.429,13.83 -0.306,0.679 -2.392,3.673 -4.134,-0.17 -5.176,0.881 -1.649,0.272 -3.448,5.432 -0.646,1.397 -1.632,6.421 -0.234,1.011 1.633,2.517 2.12,3.702 5.556,1.802 17.002,7.067 10.787,5.331 0.445,0.746 7.435,-3.837 0.88,-3.811 0.312,-1.53 -0.24,-4.383 -0.235,-0.473 -1.653,0.071 -5.52,2.648 -5.707,-8.933 3.486,-4.827 14.13,-11.889 1.395,-0.884 0.562,-0.132 10.3,-1.462 9.939,-1.325 0.915,0.548 4.023,6.514 1.087,1.907 0.138,3.77 -0.138,0.443 z"
     style="fill:#574cd2"
     stroke="#284566"
     transform="matrix(0.65222001,0,0,0.65222001,-1.180176,-22.915041)"
     sodipodi:nodetypes="cccccccccccccccccccccccccccccccccccccccccccccccccccccccccccccccccccccccccccccccccccccccccccccccccccccccccccccccccccccccccccccccccccccccccccccccccccccccccccccccccccccccccccccccccccccccccccccccccccccccccccccccccccccccccccccccccccccccccccccccccccccccccccccccccccccccccccccccccccccccccccccccccccccccccccccccccccccccccccccccccccccccccccccccccccccccccccccccccccccccccccccccccccccccccccccccccccccccccccccccccccccccccccccccccccccccccccccccccccccccccccccccccccccccccccccccccccccccccccccccccccccccccccccccccccccccccccccccccccccccccccccccccccccccccccccccccccccccccccccccccccccccccccccccccccccccc" />
</svg>
