<?xml version="1.0" encoding="utf-8"?>
<svg viewBox="0.8345 2.0174 339.549 485.2386" xmlns="http://www.w3.org/2000/svg">
  <path id="Hessen" stroke-width="0.5" d="M 459.941 131.129 L 459.294 134.053 L 459.767 137.279 L 461.621 144.246 L 466.254 155.317 L 470.146 160.208 L 481.1 164.215 L 487.17 166.798 L 490.11 176.108 L 504.758 183.543 L 510.072 185.35 L 512.702 186.946 L 514.571 188.475 L 518.788 192.621 L 522.779 193.574 L 523.694 195.543 L 522.648 198.09 L 520.694 199.514 L 519.5 200.097 L 518.431 201.08 L 517.072 205.363 L 517.174 206.179 L 518.329 207.907 L 518.987 207.812 L 519.122 213.515 L 518.987 216.067 L 518.392 216.78 L 516.558 216.78 L 515.366 214.541 L 515.402 214.403 L 514.511 212.979 L 513.355 208.73 L 509.974 205.266 L 501.58 207.311 L 500.117 209.138 L 500.461 209.998 L 504.792 219.2 L 506.76 223.14 L 507.425 237.006 L 513.215 239.105 L 516.092 241.044 L 516.733 241.729 L 518.371 243.424 L 520.048 246.444 L 519.5 248.041 L 517.615 251.742 L 518.088 252.353 L 516.32 254.459 L 515.442 254.969 L 513.787 255.609 L 513.209 255.474 L 512.432 256.046 L 506.931 256.795 L 505.599 256.968 L 504.106 256.53 L 503.171 255.805 L 502.218 254.661 L 498.09 252.413 L 490.718 251.399 L 486.113 250.923 L 483.346 251.26 L 482.494 251.669 L 482.02 252.003 L 481.55 252.961 L 479.596 257.039 L 484.301 272.504 L 487.411 291.489 L 487.48 294.042 L 482.261 307.223 L 479.969 310.93 L 475.534 311.064 L 470.318 310.385 L 468.84 311.436 L 465.323 314.296 L 464.879 315.414 L 463.726 321.185 L 463.761 322.994 L 464.986 325.273 L 465.293 328.403 L 465.329 329.897 L 464.917 330.366 L 464.069 330.672 L 459.737 332.034 L 462.71 335.671 L 463.253 340.395 L 463.253 341.447 L 461.717 345.425 L 457.713 354.021 L 453.239 359.525 L 451.067 362.655 L 450.097 364.079 L 449.855 372.598 L 450.058 375.589 L 460.573 377.46 L 464.056 378.044 L 467.029 377.436 L 468.761 373.426 L 464.811 368.533 L 464.673 366.563 L 465.435 365.551 L 473.249 362.495 L 474.809 362.087 L 481.74 362.495 L 485.833 362.903 L 486.786 363.684 L 489.279 368.035 L 491.657 374.66 L 485.863 379.524 L 485.185 380.265 L 483.909 382.306 L 483.367 383.498 L 484.011 414.687 L 484.15 417.137 L 483.16 422.436 L 481.66 426.641 L 478.687 431.102 L 467.359 443.29 L 462.241 446.253 L 458.352 449.405 L 454.599 451.716 L 450.742 453.312 L 445.784 453.902 L 438.58 450.9 L 436.132 448.958 L 424.698 452.294 L 423.575 457.387 L 421.757 464.291 L 421.25 465.341 L 419.056 467.372 L 421.278 470.605 L 422.094 472.411 L 422.368 477.674 L 422.094 481.242 L 421.722 482.505 L 420.327 485.088 L 417.862 487.533 L 412.683 492.225 L 410.353 493.131 L 410.044 493.243 L 407.846 493.243 L 402.361 495.206 L 401.953 495.747 L 400.902 497.485 L 398.677 501.599 L 395.668 509.234 L 395.426 510.593 L 395.022 510.934 L 389.908 511.275 L 387.415 511.335 L 377.607 508.836 L 374.109 507.647 L 370.291 515.757 L 369.153 526.728 L 371.307 539.784 L 372.09 543.721 L 373.487 547.054 L 373.487 549.637 L 372.2 553.448 L 355.789 556.401 L 351.454 556.877 L 350.826 556.877 L 349.092 555.481 L 343.12 541.621 L 342.777 541.214 L 341.791 540.938 L 310.633 534.857 L 267.348 546.75 L 266.939 547.054 L 265.269 549.017 L 262.91 552.827 L 261.412 560.806 L 259.33 565.026 L 263.491 568.625 L 264.462 568.419 L 266.33 568.487 L 267.977 568.997 L 268.42 569.203 L 269.437 570.084 L 269.886 570.961 L 271.036 583.464 L 265.957 586.315 L 267.08 587.855 L 267.216 588.564 L 268.42 598.286 L 268.897 607.456 L 269.205 614.081 L 270.428 623.874 L 270.764 624.584 L 273.058 627.64 L 270.118 627.306 L 269.437 627.479 L 269.536 629.514 L 269.909 634.133 L 270.22 635.393 L 271.072 636.306 L 285.067 650.304 L 286.33 650.372 L 288.82 650.915 L 289.569 651.146 L 290.147 651.555 L 293.935 668.612 L 288.723 682.475 L 287.129 683.256 L 282.763 695.219 L 280.135 717.607 L 283.007 722.871 L 282.447 728.143 L 282.733 728.414 L 281.493 731.574 L 281.02 732.286 L 279.286 733.678 L 284.47 736.467 L 285.587 737.287 L 287.403 741.734 L 287.367 743.089 L 286.436 744.456 L 283.477 745.237 L 278.724 739.699 L 275.048 738.838 L 256.923 744.655 L 256.14 745.025 L 252.791 747.405 L 247.694 753.282 L 246.474 755.561 L 245.825 757.604 L 248.205 759.781 L 249.989 762.489 L 229.166 781.516 L 228.347 782.105 L 227.941 782.207 L 221.948 781.93 L 220.403 781.629 L 218.5 779.553 L 217.529 776.762 L 218.732 774.019 L 224.394 761.985 L 231.8 759.405 L 239.272 752.641 L 238.629 748.636 L 239.136 746.563 L 231.46 746.563 L 210.58 742.45 L 209.1 741.945 L 201.691 738.648 L 197.022 735.458 L 191.008 710.924 L 192.175 710.28 L 192.485 710.888 L 193.882 711.397 L 194.216 711.029 L 195.868 707.832 L 195.46 706.301 L 192.348 705.586 L 179.707 708.744 L 174.214 710.307 L 173.264 712.246 L 173.401 714.862 L 174.08 716.119 L 176.105 715.811 L 178.987 728.857 L 178.987 730.487 L 178.653 732.218 L 176.51 735.723 L 170.944 740.102 L 167.93 740.239 L 166.982 739.97 L 165.52 739.39 L 162.582 737.18 L 160.555 734.43 L 159.337 730.621 L 152.778 722.192 L 148.106 718.118 L 146.338 716.622 L 143.124 716.252 L 142.212 716.318 L 141.206 716.553 L 137.861 718.185 L 137.351 718.453 L 135.725 714.644 L 130.608 706.965 L 128.996 704.01 L 123.84 687.468 L 123.503 686.002 L 124.047 682.88 L 124.285 682.102 L 124.93 680.909 L 125.303 680.5 L 127.325 678.94 L 129.095 677.814 L 130.637 677.076 L 132.88 676.218 L 137.72 675.166 L 138.963 674.656 L 140.288 673.914 L 141.817 672.696 L 143.121 670.755 L 143.395 670.147 L 143.871 669.193 L 145.86 665.923 L 144.748 658.418 L 135.776 649.044 L 134.099 645.883 L 130.875 641.261 L 129.902 639.665 L 122.732 621.558 L 122.125 619.002 L 122.125 617.748 L 122.497 616.056 L 122.925 614.93 L 124.047 613.096 L 125.037 611.019 L 125.24 609.941 L 125.306 608.344 L 124.899 606.579 L 122.995 600.463 L 122.894 597.407 L 121.347 593.629 L 119.85 591.016 L 118.649 589.213 L 116.338 586.494 L 112.241 582.758 L 109.746 579.023 L 108.322 576.947 L 106.103 574.529 L 102.379 570.971 L 100.512 570.189 L 94.564 568.93 L 91.184 568.461 L 88.243 568.663 L 80.122 571.276 L 66.819 577.359 L 44.257 585.996 L 43.306 586.267 L 36.917 587.28 L 26.2 587.617 L 25.069 587.485 L 24.192 587.208 L 22.679 586.157 L 5.284 561.834 L 3.089 555.618 L 6.126 554.968 L 12.53 551.368 L 25.879 540.224 L 27.111 540.7 L 34.546 542.768 L 35.513 541.481 L 36.741 531.87 L 36.332 530.716 L 33.122 527.83 L 30.59 525.889 L 28.919 524.876 L 27.749 523.202 L 27.547 518.954 L 27.788 518.553 L 32.675 512.1 L 34.549 510.736 L 35.654 510.158 L 49.607 504.115 L 55.518 507.575 L 58.727 508.351 L 59.682 508.321 L 65.067 502.343 L 64.758 501.798 L 63.569 500.946 L 58.199 495.715 L 57.454 494.182 L 60.633 490.001 L 63.498 489.121 L 65.642 489.391 L 72.377 492.138 L 78.798 488.442 L 78.727 482.253 L 78.497 480.965 L 76.138 473.77 L 75.9 473.221 L 75.257 471.931 L 66.729 456.333 L 49.761 445.019 L 48.122 444.984 L 49.045 442.506 L 54.687 426.613 L 52.325 423.479 L 50.609 419.33 L 50.577 418.281 L 52.092 410.465 L 53.788 407.04 L 61.465 397.893 L 62.673 397.45 L 64.614 396.911 L 65.6 397.008 L 69.488 398.566 L 71.102 401.933 L 74.384 403.052 L 77.831 403.733 L 80.279 403.398 L 80.886 402.001 L 83.383 396.056 L 84.261 393.919 L 86.623 388.131 L 87.85 384.323 L 87.815 382.428 L 84.059 380.28 L 82.906 379.606 L 82.494 378.786 L 79.522 363.16 L 79.558 360.172 L 79.758 358.401 L 80.231 357.077 L 83.072 353.847 L 85.428 350.656 L 91.865 338.696 L 92.044 337.574 L 91.459 334.518 L 88.875 330.914 L 86.411 326.047 L 85.152 323.407 L 83.809 320.173 L 114.288 290.414 L 114.931 289.866 L 115.553 289.767 L 118.684 289.866 L 119.278 290.069 L 132.415 296.997 L 132.99 297.169 L 134.742 296.796 L 135.117 296.394 L 138.732 292.519 L 152.512 271.721 L 154.433 263.401 L 154.61 262.99 L 155.893 262.242 L 156.2 262.078 L 158.121 262.042 L 158.63 262.242 L 157.781 261.052 L 157.743 260.28 L 158.016 259.77 L 160.766 256.779 L 165.388 251.781 L 168.566 248.991 L 169.83 247.813 L 171.358 245.467 L 170.173 242.649 L 168.01 237.958 L 164.593 227.43 L 164.289 226.437 L 164.289 225.829 L 165.696 223.792 L 167.39 222.332 L 169.857 220.257 L 170.265 220.019 L 174.328 218.487 L 174.801 218.117 L 183.823 218.695 L 189.313 219.577 L 191.741 220.563 L 195.327 221.414 L 196.751 221.347 L 206.996 217.397 L 216.105 197.419 L 216.986 195.314 L 217.218 194.09 L 216.713 187.534 L 214.303 166.91 L 213.946 166.094 L 211.196 162.358 L 208.262 162.29 L 205.999 162.493 L 191.324 169.09 L 188.232 171.193 L 187.895 171.295 L 185.462 171.155 L 184.479 170.821 L 183.778 170.133 L 177.136 160.86 L 178.971 158.108 L 187.359 146.048 L 190.88 141.699 L 194.367 139.423 L 203.862 133.375 L 219.863 128.448 L 231.98 125.219 L 245.367 124.917 L 256.423 125.63 L 256.9 125.457 L 259.545 117.575 L 258.868 113.224 L 258.729 112.51 L 257.739 111.964 L 255.994 111.559 L 247.904 98.236 L 247.318 96.134 L 247.318 94.711 L 249.519 92.499 L 258.69 88.589 L 263.79 86.857 L 270.943 85.09 L 274.699 84.916 L 284.097 88.892 L 287.885 95.177 L 285.59 100.88 L 287.406 106.115 L 287.952 106.897 L 288.83 107.472 L 290.819 108.118 L 299.687 108.7 L 301.593 108.39 L 303.514 105.161 L 305.605 101.795 L 319.48 90.617 L 333.818 79.408 L 344.232 62.32 L 356.586 47.511 L 360.747 40.506 L 371.262 38.227 L 372.144 38.408 L 372.614 39.087 L 372.716 40.311 L 371.936 42.039 L 371.256 44.687 L 371.389 45.78 L 372.376 47.065 L 374.709 48.488 L 376.949 48.797 L 387.225 48.967 L 390.333 48.899 L 401.295 54.507 L 401.525 54.841 L 406.102 59.841 L 408.325 61.709 L 410.976 63.402 L 411.551 64.012 L 412.114 65.301 L 411.076 67.988 L 410.706 68.531 L 410.371 68.531 L 408.244 67.92 L 405.902 69.862 L 404.015 72.409 L 403.431 73.564 L 398.528 74.414 L 390.706 83.146 L 390.236 84.161 L 390.197 84.47 L 390.372 84.984 L 396.997 96.295 L 398.766 98.233 L 399.893 103.332 L 402.322 117.162 L 402.016 117.841 L 399.624 121.514 L 395.49 121.344 L 390.314 122.225 L 388.665 122.497 L 385.217 127.929 L 384.571 129.326 L 382.939 135.747 L 382.705 136.758 L 384.338 139.275 L 386.458 142.977 L 392.014 144.779 L 409.016 151.846 L 419.803 157.177 L 420.248 157.923 L 427.683 154.086 L 428.563 150.275 L 428.875 148.745 L 428.635 144.362 L 428.4 143.889 L 426.747 143.96 L 421.227 146.608 L 415.52 137.675 L 419.006 132.848 L 433.136 120.959 L 434.531 120.075 L 435.093 119.943 L 445.393 118.481 L 455.332 117.156 L 456.247 117.704 L 460.27 124.218 L 461.357 126.125 L 461.495 129.895 L 461.357 130.338 L 459.941 131.129 Z" style="fill: rgb(87, 76, 210);" stroke="#284566" transform="matrix(0.6522200107574463, 0, 0, 0.6522200107574463, -1.180176019668636, -22.915040969848647)"/>
</svg>