<?xml version="1.0"?>
<svg xmlns="http://www.w3.org/2000/svg" id="Layer_1" data-name="Layer 1" viewBox="0 0 64 64"><title>Icons8 RSL Colored Part 7</title><path d="M31.79,24,33,26.3a3.07,3.07,0,0,0,1.22,1.22l2.3,1.26L34.27,30A3.07,3.07,0,0,0,33,31.27l-1.26,2.3-1.26-2.3A3.07,3.07,0,0,0,29.3,30L27,28.79l2.3-1.26a3.07,3.07,0,0,0,1.22-1.22Z" style="fill:#f9e3ae;"/><path d="M16.79,11l2,3.75a5,5,0,0,0,2,2l3.75,2-3.75,2a5,5,0,0,0-2,2l-2,3.75-2-3.75a5,5,0,0,0-2-2L9,18.79l3.75-2a5,5,0,0,0,2-2Z" style="fill:#f9e3ae;"/><path d="M24.57,18.75l-3.75,2a4.84,4.84,0,0,0-2,2L17,26.15l-.21.38-2-3.75a4.93,4.93,0,0,0-2-2L9,18.75l3.75-2a5,5,0,0,0,2-2l2-3.75.21.38,1.84,3.37a4.93,4.93,0,0,0,2,2Z" style="fill:#f9e3ae;"/><path d="M17,11.34V26.15l-.21.38-2-3.75a4.93,4.93,0,0,0-2-2L9,18.75l3.75-2a5,5,0,0,0,2-2l2-3.75Z" style="fill:#faefde;"/><polygon points="32 26 32 32 29 30 29 28 30 26 32 26" style="fill:#faefde;"/><path d="M58.91,33.24A28,28,0,0,1,8.11,47.13,1,1,0,0,1,9.23,45.6,28,28,0,0,0,43.81,8.14,1,1,0,0,1,45.25,6.9,28,28,0,0,1,58.91,33.24Z" style="fill:#f9e3ae;"/><path d="M58.91,33.24A28,28,0,0,1,21.55,57.36a2.51,2.51,0,0,1-1.36-3.61v0a2.5,2.5,0,0,1,3-1.09A23,23,0,0,0,31,54c.47,0,.94,0,1.41,0a23,23,0,0,0,19.67-32.2,2.48,2.48,0,0,1,1.27-3.23h0a2.48,2.48,0,0,1,3.3,1.23A28.06,28.06,0,0,1,58.91,33.24Z" style="fill:#f6d397;"/><path d="M30,51a1,1,0,0,0-1,1v2a1,1,0,0,0,2,0V52A1,1,0,0,0,30,51Z" style="fill:#8d6c9f;"/><path d="M36,51.08a1,1,0,0,0-1.93.52l.52,1.93A1,1,0,0,0,36.53,53Z" style="fill:#8d6c9f;"/><path d="M40.62,48.89a1,1,0,0,0-1.73,1l1,1.73a1,1,0,0,0,1.73-1Z" style="fill:#8d6c9f;"/><path d="M25.21,50.37a1,1,0,0,0-1.22.71L23.47,53a1,1,0,1,0,1.93.52l.52-1.93A1,1,0,0,0,25.21,50.37Z" style="fill:#8d6c9f;"/><path d="M45.76,6a2,2,0,0,0-2.87,2.49A26.82,26.82,0,0,1,45,20,27.08,27.08,0,0,1,19,46a26.83,26.83,0,0,1-9.43-1.34A2,2,0,0,0,7.29,47.7,28.85,28.85,0,0,0,31,60q.88,0,1.77-.05A29,29,0,0,0,45.76,6ZM57.92,33.16a27,27,0,0,1-49,13.39A29,29,0,0,0,47,20.1,28.8,28.8,0,0,0,44.74,7.76,26.9,26.9,0,0,1,57.92,33.16Z" style="fill:#8d6c9f;"/><path d="M52.33,25.57a1,1,0,0,0,1,.76l.24,0a1,1,0,0,0,.73-1.21,23,23,0,0,0-.73-2.4,1,1,0,0,0-1.88.69A20.75,20.75,0,0,1,52.33,25.57Z" style="fill:#8d6c9f;"/><path d="M52.92,29.68a21.05,21.05,0,0,1-2.56,11,1,1,0,1,0,1.75,1,23,23,0,0,0,2.8-12,1,1,0,0,0-2,.08Z" style="fill:#8d6c9f;"/><path d="M8.52,19.62l3.75,2a4,4,0,0,1,1.59,1.59l2,3.75a1,1,0,0,0,1.75,0l2-3.75a4,4,0,0,1,1.59-1.59l3.75-2a1,1,0,0,0,0-1.75l-3.75-2a4,4,0,0,1-1.59-1.59l-2-3.75a1,1,0,0,0-1.75,0l-2,3.75a4,4,0,0,1-1.59,1.59l-3.75,2a1,1,0,0,0,0,1.75Zm4.71-2a6,6,0,0,0,2.38-2.39L16.79,13,18,15.19a6,6,0,0,0,2.39,2.39l2.14,1.17-2.14,1.17A6,6,0,0,0,18,22.3l-1.17,2.14L15.61,22.3a6,6,0,0,0-2.38-2.38l-2.14-1.17Z" style="fill:#8d6c9f;"/><path d="M26.52,29.66l2.3,1.26a2.08,2.08,0,0,1,.83.82l1.26,2.3a1,1,0,0,0,1.75,0l1.26-2.31a2.06,2.06,0,0,1,.82-.82l2.3-1.26a1,1,0,0,0,0-1.75l-2.3-1.26a2.07,2.07,0,0,1-.82-.82l-1.26-2.3a1,1,0,0,0-1.75,0l-1.26,2.3a2.08,2.08,0,0,1-.82.82l-2.3,1.26a1,1,0,0,0,0,1.75Zm3.26-1.26a4.06,4.06,0,0,0,1.62-1.62l.38-.7.38.7a4.06,4.06,0,0,0,1.62,1.62l.7.38-.7.38a4.06,4.06,0,0,0-1.62,1.62l-.38.7-.38-.7a4.07,4.07,0,0,0-1.62-1.62l-.7-.38Z" style="fill:#8d6c9f;"/></svg>
